<svg version="1.1" id="Layer_1" xmlns:x="ns_extend;" xmlns:i="ns_ai;" xmlns:graph="ns_graphs;" xmlns="http://www.w3.org/2000/svg" xmlns:xlink="http://www.w3.org/1999/xlink" x="0px" y="0px" viewBox="0 0 183.9 213.1" style="enable-background:new 0 0 183.9 213.1;" xml:space="preserve">
 <style type="text/css">
  .st0{fill:#06A76C;}
 </style>
 <metadata>
  <sfw xmlns="ns_sfw;">
   <slices>
   </slices>
   <sliceSourceBounds bottomLeftOrigin="true" height="213.1" width="183.9" x="0" y="211.6">
   </sliceSourceBounds>
  </sfw>
 </metadata>
 <g>
  <path class="st0" d="M166.2,135.4c-0.7-1.6-2.2-2.5-3.9-2.5l-51.5,0.4c-27.8,0-51.2-20.8-54.6-48.3l-0.1-0.5l0.5-0.2
		c6.8-2.9,14.1-4.4,21.6-4.4h57c3.6,0,7-1.9,8.8-5.1l39.4-68.4c0.8-1.5,0.7-3.2-0.3-4.6C182.4,0.6,181,0,179.5,0h-68.7
		C91.2,0,72.5,7.3,58,20.5C43.7,33.7,34.8,51.6,33,70.9v0.3l-0.2,0.2C12.2,86.1,0,109.8,0,134.9c0,43.1,35.1,78.2,78.3,78.2
		l39.5-0.3c3.6,0,6.9-2,8.7-5.1l39.3-68.3C166.6,138.1,166.7,136.6,166.2,135.4z M78.2,190c-17.2,0-33.2-7.9-43.7-21.6
		C24,154.7,20.6,137,25.2,119.8c1.8-6.5,4.9-12.7,9.4-18.4l1.1-1.3l0.4,1.2C40.9,117,50.8,131,64,140.9
		c13.6,10.2,29.9,15.6,46.9,15.6l13.3-0.1c1.1,0,2.1,0.6,2.6,1.5s0.5,2,0,3l-14.6,25.4c-1.3,2.2-3.6,3.6-6.1,3.6L78.2,190z
		 M59.7,57.9c8.4-21.1,28.5-34.7,51.1-34.7h31c1.1,0,2,0.5,2.6,1.5c0.5,0.9,0.5,2,0,3l-14.7,25.5c-1.3,2.2-3.6,3.6-6.2,3.6H78.2
		c-6,0-12,0.7-17.8,2L59.2,59L59.7,57.9z">
  </path>
 </g>
</svg>