<svg width="359" height="358" viewBox="0 0 359 358" fill="none" xmlns="http://www.w3.org/2000/svg">
<g clip-path="url(#clip0_597_24565)">
<path d="M179.415 358C278.503 358 358.829 277.859 358.829 179C358.829 80.141 278.503 0 179.415 0C80.3266 0 0 80.141 0 179C0 277.859 80.3266 358 179.415 358Z" fill="url(#paint0_linear_597_24565)"/>
<path d="M211.934 52.5812L97.5576 166.694C86.9049 177.322 87.1852 194.383 97.5576 204.731C108.21 215.359 125.311 215.359 135.683 204.731L250.06 90.6187C260.713 79.9905 260.432 63.2093 250.06 52.5812C239.688 42.2327 222.587 42.2327 211.934 52.5812Z" fill="white"/>
<path d="M222.868 153.269L108.491 267.102C97.8385 277.73 98.1188 294.791 108.491 305.139C119.144 315.768 136.244 315.768 146.617 305.139L260.994 191.027C271.646 180.399 271.366 163.618 260.994 152.989C250.621 142.641 233.521 142.641 222.868 153.269Z" fill="white"/>
</g>
<defs>
<linearGradient id="paint0_linear_597_24565" x1="0" y1="179" x2="358.829" y2="179" gradientUnits="userSpaceOnUse">
<stop stop-color="#4776E6"/>
<stop offset="1" stop-color="#8E54E9"/>
</linearGradient>
<clipPath id="clip0_597_24565">
<rect width="358.829" height="358" fill="white"/>
</clipPath>
</defs>
</svg>
