<svg id="Layer_1" data-name="Layer 1" xmlns="http://www.w3.org/2000/svg" xmlns:xlink="http://www.w3.org/1999/xlink" viewBox="0 0 300 300"><defs><style>.cls-1{fill:none;}.cls-2{clip-path:url(#clip-path);}.cls-3{fill:#003e69;}.cls-4{clip-path:url(#clip-path-2);}.cls-5{fill:#fff;}</style><clipPath id="clip-path"><circle class="cls-1" cx="150" cy="150" r="150"/></clipPath><clipPath id="clip-path-2"><circle class="cls-1" cx="470" cy="150" r="150"/></clipPath></defs><title>Artboard 1</title><g class="cls-2"><path class="cls-3" d="M282.49,120.24H192C204,76.93,214.61,40.16,214.61,40.16s-40.72,42.23-76.85,80.08l-358.33.74h0l349.45,8.62c-26.89,27.77-41,43.59-41.55,44.13h0L137,129.6l42.51,1.05-6.37,32.56L-26,272.65l-.79.42S131.39,192.4,171.3,172.76c0,0-14,71-14,71.35h0v-.7c1.28-4.64,9.68-32.56,21.11-73.9,52.27-25.64,104.06-49.27,104.06-49.27M188.67,84.09l-7.17,36.27H147.64Zm.2,47,41.19,1-48.92,27.07c2.79-9.55,5.06-18.26,7.73-27.88"/></g><g class="cls-4"><path class="cls-5" d="M602.49,120.24H512c12-43.31,22.59-80.08,22.59-80.08s-40.72,42.23-76.85,80.08L99.43,121h0l349.45,8.62c-26.89,27.77-41,43.59-41.55,44.13h0L457,129.6l42.51,1.05-6.37,32.56L294,272.65l-.79.42S451.39,192.4,491.3,172.76c0,0-14,71-14,71.35h0v-.7c1.28-4.64,9.68-32.56,21.11-73.9,52.27-25.64,104.06-49.27,104.06-49.27M508.67,84.09l-7.17,36.27H467.64Zm.2,47,41.19,1-48.92,27.07c2.79-9.55,5.06-18.26,7.73-27.88"/></g></svg>