<svg id="logosandtypes_com" data-name="logosandtypes com" xmlns="http://www.w3.org/2000/svg" xmlns:xlink="http://www.w3.org/1999/xlink" viewBox="0 0 150 150"><defs><style>.cls-1{fill:none;}.cls-2{fill:url(#linear-gradient);}.cls-3{fill:url(#linear-gradient-2);}.cls-4{fill:url(#linear-gradient-3);}.cls-5{fill:url(#linear-gradient-4);}.cls-6{fill:url(#linear-gradient-5);}.cls-7{fill:#0082fb;}.cls-8{fill:url(#linear-gradient-6);}.cls-9{fill:url(#linear-gradient-7);}.cls-10{fill:url(#linear-gradient-8);}.cls-11{fill:url(#linear-gradient-9);}.cls-12{fill:url(#linear-gradient-10);}.cls-13{fill:url(#linear-gradient-11);}.cls-14{fill:url(#linear-gradient-12);}.cls-15{fill:url(#linear-gradient-13);}</style><linearGradient id="linear-gradient" x1="20.44" y1="2021.3" x2="43" y2="2038.43" gradientTransform="matrix(1, 0, 0, -1, 0, 2069.89)" gradientUnits="userSpaceOnUse"><stop offset="0.13" stop-color="#0064df"/><stop offset="1" stop-color="#0064e0"/></linearGradient><linearGradient id="linear-gradient-2" x1="11" y1="1996.6" x2="21.11" y2="2022.04" gradientTransform="matrix(1, 0, 0, -1, 0, 2069.89)" gradientUnits="userSpaceOnUse"><stop offset="0.01" stop-color="#0072ec"/><stop offset="0.69" stop-color="#0064df"/></linearGradient><linearGradient id="linear-gradient-3" x1="9.67" y1="1980.13" x2="10.89" y2="1996.29" gradientTransform="matrix(1, 0, 0, -1, 0, 2069.89)" gradientUnits="userSpaceOnUse"><stop offset="0.07" stop-color="#007cf6"/><stop offset="0.99" stop-color="#0072ec"/></linearGradient><linearGradient id="linear-gradient-4" x1="10.17" y1="1972.63" x2="9.33" y2="1978.87" gradientTransform="matrix(1, 0, 0, -1, 0, 2069.89)" gradientUnits="userSpaceOnUse"><stop offset="0.07" stop-color="#007ff9"/><stop offset="1" stop-color="#007cf6"/></linearGradient><linearGradient id="linear-gradient-5" x1="8.88" y1="1972.81" x2="14.45" y2="1961.01" gradientTransform="matrix(1, 0, 0, -1, 0, 2069.89)" gradientUnits="userSpaceOnUse"><stop offset="0.07" stop-color="#007ff9"/><stop offset="1" stop-color="#0082fb"/></linearGradient><linearGradient id="linear-gradient-6" x1="80.66" y1="2017.89" x2="87.3" y2="2027.06" gradientTransform="matrix(1, 0, 0, -1, 0, 2069.89)" gradientUnits="userSpaceOnUse"><stop offset="0.28" stop-color="#007ff8"/><stop offset="0.91" stop-color="#0082fb"/></linearGradient><linearGradient id="linear-gradient-7" x1="127.91" y1="2029.89" x2="140.82" y2="1982.38" gradientTransform="matrix(1, 0, 0, -1, 0, 2069.89)" gradientUnits="userSpaceOnUse"><stop offset="0" stop-color="#0082fb"/><stop offset="1" stop-color="#0081fa"/></linearGradient><linearGradient id="linear-gradient-8" x1="144.08" y1="1980.93" x2="135.8" y2="1964.19" gradientTransform="matrix(1, 0, 0, -1, 0, 2069.89)" gradientUnits="userSpaceOnUse"><stop offset="0.06" stop-color="#0081fa"/><stop offset="1" stop-color="#0080f9"/></linearGradient><linearGradient id="linear-gradient-9" x1="129.64" y1="1955.62" x2="138.18" y2="1961.43" gradientTransform="matrix(1, 0, 0, -1, 0, 2069.89)" gradientUnits="userSpaceOnUse"><stop offset="0" stop-color="#027af3"/><stop offset="1" stop-color="#0080f9"/></linearGradient><linearGradient id="linear-gradient-10" x1="117.52" y1="1954.4" x2="128.48" y2="1954.4" gradientTransform="matrix(1, 0, 0, -1, 0, 2069.89)" gradientUnits="userSpaceOnUse"><stop offset="0" stop-color="#0377ef"/><stop offset="1" stop-color="#0279f1"/></linearGradient><linearGradient id="linear-gradient-11" x1="108.38" y1="1960.11" x2="116.54" y2="1955.31" gradientTransform="matrix(1, 0, 0, -1, 0, 2069.89)" gradientUnits="userSpaceOnUse"><stop offset="0" stop-color="#0471e9"/><stop offset="1" stop-color="#0377ef"/></linearGradient><linearGradient id="linear-gradient-12" x1="85.11" y1="1993.06" x2="110.39" y2="1961.27" gradientTransform="matrix(1, 0, 0, -1, 0, 2069.89)" gradientUnits="userSpaceOnUse"><stop offset="0.28" stop-color="#0867df"/><stop offset="1" stop-color="#0471e9"/></linearGradient><linearGradient id="linear-gradient-13" x1="84.64" y1="1992.97" x2="51.5" y2="2036.39" gradientTransform="matrix(1, 0, 0, -1, 0, 2069.89)" gradientUnits="userSpaceOnUse"><stop offset="0" stop-color="#0867df"/><stop offset="0.45" stop-color="#0668e1"/><stop offset="0.86" stop-color="#0064e0"/></linearGradient></defs><path class="cls-1" d="M0,0H150V150H0Z"/><path class="cls-2" d="M43.6,26.62c-11.74.06-22.1,7.64-29.6,19.25l-.07.11,13.75,7.48.07-.09c4.37-6.59,9.82-10.79,15.65-10.85h.14c7.47-4.41,5.62-9.94.2-15.89Z"/><path class="cls-3" d="M14,45.88l-.07.11A78.49,78.49,0,0,0,3.37,73.19v.14L18.79,77v-.14C20.44,68,23.58,59.69,27.66,53.5l.07-.09C26.84,46,22.36,43.38,14,45.88Z"/><path class="cls-4" d="M18.81,76.82c-4.64-7.16-9.87-7.37-15.44-3.64v.14A89.8,89.8,0,0,0,1.69,90.24v.14L17.53,91.8V90.66A76.38,76.38,0,0,1,18.79,77a.33.33,0,0,1,0-.14Z"/><path class="cls-5" d="M18,96.74a34,34,0,0,1-.49-4.94v-.14c-5-4.46-10.28-4.53-15.84-1.42v.15a54.79,54.79,0,0,0,.87,9.9v.14L18,96.87Z"/><path class="cls-6" d="M21.62,104.93A16.06,16.06,0,0,1,18,96.86v-.13c-5.17-4.6-10.32-3.46-15.45,3.55v.14a32.48,32.48,0,0,0,6.74,15.11l.08.1c5.81-.53,9.9-4.08,12.3-10.6Z"/><path class="cls-7" d="M67.41,61c-9.32,14.28-15,23.24-15,23.24C40.05,103.67,35.76,108,28.85,108a9.5,9.5,0,0,1-7.14-3l-.09-.1L9.33,115.54l.08.1c4.53,5.28,10.92,8.21,18.84,8.21,12,0,20.57-5.64,35.87-32.38l10.76-19C74.15,65.87,72,61.72,67.41,61Z"/><path class="cls-8" d="M84,38.43l-.1.1a97,97,0,0,0-7.07,8.6C77.5,54,80,57,84,57a76.8,76.8,0,0,1,8.33-11l.1-.09Z"/><path class="cls-7" d="M129.21,37c-6.5-6.56-14.24-10.41-22.52-10.41C98,26.62,90.62,31.4,84,38.43l-.1.1c.26,6.64,3.38,8.65,8.42,7.53a.47.47,0,0,1,.1-.1c4.36-4.54,8.58-6.81,13.26-6.81,5,0,9.75,2.37,13.83,6.54l.1.09,9.68-8.65A.57.57,0,0,0,129.21,37Z"/><path class="cls-9" d="M148,88.14c-.36-21.07-7.74-39.9-18.68-51l-.09-.1c-7.31,1-10.81,3.78-9.69,8.66l.1.09C127.86,54.23,133.49,70,134,88.13v.14h14Z"/><path class="cls-10" d="M148,88.29v-.14c-4-3.8-8.84-3-14,0v2.71c0,5-.74,9-2.25,11.85l-.07.13,10.42,10.83a.75.75,0,0,0,.07-.12C146,107.72,148,99.61,148,89.78Z"/><path class="cls-11" d="M131.8,102.7l-.07.13a9.14,9.14,0,0,1-5.59,4.77l4.75,15c.63-.22,1.24-.46,1.84-.72l.52-.25.3-.14a21.71,21.71,0,0,0,7.95-6.85l.38-.55.27-.4a.75.75,0,0,0,.07-.12C142.4,108.33,138.69,104.82,131.8,102.7Z"/><path class="cls-12" d="M123.12,108a10.27,10.27,0,0,1-4.37-.85l-4.86,15.32a27.1,27.1,0,0,0,8.89,1.35,25.07,25.07,0,0,0,8.24-1.31c1.57-5.26.37-10.27-4.75-15a10.17,10.17,0,0,1-3.15.45Z"/><path class="cls-13" d="M113.39,102.77l-.09-.1L102.11,114.3l.1.1c3.89,4.14,7.6,6.71,11.81,8.12,4.61-3.72,6.48-8.71,4.86-15.31A15.28,15.28,0,0,1,113.39,102.77Z"/><path class="cls-14" d="M113.3,102.68c-3.35-3.9-7.5-10.41-14-20.91L90.8,67.58l-.07-.12L80.81,82.27l.07.12,6,10.14c5.84,9.78,10.6,16.85,15.19,21.77a.47.47,0,0,0,.1.1c5.8-1.59,10.29-4.63,11.18-11.63l-.08-.09Z"/><path class="cls-15" d="M43.73,26.62H43.6l-.2,15.9h.14c10.46,0,18.57,8.24,36.2,37.94l1.08,1.81.07.12c5.39-1.83,9-6.31,9.87-14.81l-.07-.12Q87.21,61.79,84,57c-2.48-3.67-4.85-7-7.15-9.9C65.17,32.28,55.41,26.62,43.73,26.62Z"/></svg>