<?xml version="1.0" encoding="UTF-8" standalone="no"?>
<!DOCTYPE svg PUBLIC "-//W3C//DTD SVG 1.1//EN" "http://www.w3.org/Graphics/SVG/1.1/DTD/svg11.dtd">
<svg width="100%" height="100%" viewBox="0 0 513 365" version="1.1" xmlns="http://www.w3.org/2000/svg" xmlns:xlink="http://www.w3.org/1999/xlink" xml:space="preserve" xmlns:serif="http://www.serif.com/" style="fill-rule:evenodd;clip-rule:evenodd;stroke-linejoin:round;stroke-miterlimit:2;">
    <g transform="matrix(2,0,0,2,-0.416515,-71.6964)">
        <g transform="matrix(1.04652,0,0,1.42297,5.30155,40.8147)">
            <g id="Layer1">
                <rect x="-4.867" y="-3.49" width="244.916" height="127.948" style="fill:rgb(4,41,68);"/>
            </g>
        </g>
        <g transform="matrix(1,0,0,1,9.5,46.5)">
            <path d="M0.948,0L45.068,0L45.068,11.629L17.641,11.629L17.641,116.566L45.068,116.566L45.068,128.183L0.948,128.183L0.948,0Z" style="fill:white;fill-rule:nonzero;"/>
        </g>
        <g transform="matrix(1,0,0,1,9.5,46.5)">
            <path d="M192.537,116.566L219.964,116.566L219.964,11.629L192.537,11.629L192.537,0L236.644,0L236.644,128.185L192.537,128.185L192.537,116.566Z" style="fill:white;fill-rule:nonzero;"/>
        </g>
        <g transform="matrix(1,0,0,1,9.5,46.5)">
            <path d="M75.607,104.687L75.607,40.986L52.689,40.986L52.689,26.295L115.214,26.295L115.214,40.986L92.412,40.986L92.412,104.687L75.607,104.687Z" style="fill:white;fill-rule:nonzero;"/>
        </g>
        <g transform="matrix(1,0,0,1,9.5,46.5)">
            <path d="M119.796,93.64L128.854,80.946C132.074,84.304 135.944,86.973 140.226,88.791C144.509,90.61 149.117,91.539 153.77,91.524C162.936,91.524 167.402,87.294 167.402,82.826C167.402,68.958 122.271,78.479 122.271,48.978C122.271,35.933 133.554,25.119 152.004,25.119C164.462,25.119 174.805,28.88 182.561,36.05L173.277,48.273C166.927,42.394 158.472,39.694 150.472,39.694C143.303,39.694 139.307,42.866 139.307,47.571C139.307,60.029 184.322,51.684 184.322,80.948C184.322,95.287 174.096,106.1 152.941,106.1C137.897,106.099 127.083,101.044 119.796,93.64Z" style="fill:white;fill-rule:nonzero;"/>
        </g>
        <g transform="matrix(1,0,0,1,9.5,46.5)">
            <path d="M5.507,162.252L5.507,149.022L0.751,149.022L0.751,145.966L13.747,145.966L13.747,149.018L8.998,149.018L8.998,162.248L5.507,162.252Z" style="fill:white;fill-rule:nonzero;"/>
        </g>
        <g transform="matrix(1,0,0,1,9.5,46.5)">
            <path d="M30.992,162.252L29.99,159.496L23.002,159.496L21.976,162.252L18.03,162.252L24.331,145.97L28.672,145.97L34.946,162.252L30.992,162.252ZM26.501,149.438L23.962,156.444L29.039,156.444L26.501,149.438Z" style="fill:white;fill-rule:nonzero;"/>
        </g>
        <g transform="matrix(1,0,0,1,9.5,46.5)">
            <path d="M41.832,162.252L41.832,145.966L45.297,145.966L45.297,159.196L52.189,159.196L52.189,162.248L41.832,162.252Z" style="fill:white;fill-rule:nonzero;"/>
        </g>
        <g transform="matrix(1,0,0,1,9.5,46.5)">
            <path d="M69.635,162.252L64.712,155.734L63.442,157.248L63.442,162.252L59.977,162.252L59.977,145.966L63.442,145.966L63.442,153.251L69.196,145.966L73.469,145.966L66.998,153.606L73.908,162.248L69.635,162.252Z" style="fill:white;fill-rule:nonzero;"/>
        </g>
        <g transform="matrix(1,0,0,1,9.5,46.5)">
            <path d="M79.768,159.958L81.646,157.322C82.315,158.018 83.119,158.572 84.008,158.95C84.898,159.327 85.854,159.52 86.821,159.517C88.725,159.517 89.652,158.639 89.652,157.711C89.652,154.831 80.279,156.808 80.279,150.682C80.279,147.972 82.623,145.726 86.454,145.726C89.042,145.726 91.18,146.513 92.801,147.996L90.873,150.534C89.57,149.374 87.882,148.742 86.137,148.762C84.649,148.762 83.818,149.422 83.818,150.398C83.818,152.986 93.167,151.253 93.167,157.331C93.167,160.309 91.044,162.555 86.649,162.555C83.526,162.545 81.286,161.496 79.768,159.958Z" style="fill:white;fill-rule:nonzero;"/>
        </g>
        <g transform="matrix(1,0,0,1,9.5,46.5)">
            <path d="M100.102,154.124C100.102,149.119 103.884,145.703 108.766,145.703C112.353,145.703 114.429,147.656 115.575,149.682L112.593,151.145C112.226,150.443 111.676,149.854 111.002,149.438C110.327,149.022 109.554,148.796 108.762,148.782C105.808,148.782 103.66,151.052 103.66,154.128C103.66,157.204 105.808,159.474 108.762,159.474C109.555,159.465 110.331,159.241 111.006,158.825C111.681,158.408 112.23,157.816 112.593,157.111L115.571,158.553C114.399,160.579 112.349,162.556 108.762,162.556C103.884,162.546 100.102,159.127 100.102,154.124Z" style="fill:white;fill-rule:nonzero;"/>
        </g>
        <g transform="matrix(1,0,0,1,9.5,46.5)">
            <path d="M132.226,162.252L129.029,156.467L126.489,156.467L126.489,162.252L123.029,162.252L123.029,145.966L130.645,145.966C134.038,145.966 136.113,148.187 136.113,151.215C136.113,154.094 134.306,155.632 132.549,156.047L136.21,162.248L132.226,162.252ZM132.567,151.225C132.567,149.847 131.517,149.028 130.127,149.028L126.489,149.028L126.489,153.421L130.127,153.421C131.517,153.415 132.567,152.586 132.567,151.219L132.567,151.225Z" style="fill:white;fill-rule:nonzero;"/>
        </g>
        <g transform="matrix(1,0,0,1,9.5,46.5)">
            <path d="M144.098,162.252L144.098,145.966L147.565,145.966L147.565,162.248L144.098,162.252Z" style="fill:white;fill-rule:nonzero;"/>
        </g>
        <g transform="matrix(1,0,0,1,9.5,46.5)">
            <path d="M156.151,162.252L156.151,145.966L163.765,145.966C167.309,145.966 169.233,148.358 169.233,151.215C169.233,154.072 167.282,156.463 163.765,156.463L159.616,156.463L159.616,162.248L156.151,162.252ZM165.694,151.225C165.694,149.847 164.669,149.028 163.302,149.028L159.616,149.028L159.616,153.421L163.302,153.421C164.669,153.415 165.694,152.56 165.694,151.219L165.694,151.225Z" style="fill:white;fill-rule:nonzero;"/>
        </g>
        <g transform="matrix(1,0,0,1,9.5,46.5)">
            <path d="M180.512,162.252L180.512,149.022L175.753,149.022L175.753,145.966L188.749,145.966L188.749,149.018L184.023,149.018L184.023,162.248L180.512,162.252Z" style="fill:white;fill-rule:nonzero;"/>
        </g>
        <g transform="matrix(1,0,0,1,9.5,46.5)">
            <rect x="190.583" y="158.592" width="3.775" height="3.727" style="fill:white;fill-rule:nonzero;"/>
        </g>
        <g transform="matrix(1,0,0,1,9.5,46.5)">
            <path d="M200.236,146.005L212.658,146.005L212.658,149.268L203.825,149.268L203.825,152.741L211.609,152.741L211.609,156.008L203.825,156.008L203.825,162.323L200.236,162.323L200.236,146.005Z" style="fill:white;fill-rule:nonzero;"/>
        </g>
        <g transform="matrix(1,0,0,1,9.5,46.5)">
            <path d="M220.186,146.005L224.055,146.005L228.344,152.897L232.632,146.005L236.502,146.005L236.502,162.319L232.936,162.319L232.936,151.676L228.344,158.645L228.251,158.645L223.707,151.753L223.707,162.333L220.186,162.333L220.186,146.005Z" style="fill:white;fill-rule:nonzero;"/>
        </g>
    </g>
</svg>
