<svg xmlns="http://www.w3.org/2000/svg" fill="none" viewBox="0 0 313 288"><path fill="#6363F1" d="M37 144c0 4.56 1.2 9.12 3.52 13.04l42.08 72.88c4.32 7.44 10.88 13.52 19.04 16.24 16.08 5.36 32.72-1.52 40.64-15.28l10.16-17.6L112.36 144l42.32-73.36 10.16-17.6c3.04-5.28 7.12-9.6 11.92-13.04h-65.28c-11.44 0-22 6.08-27.68 16l-43.28 74.96C38.2 134.88 37 139.44 37 144Z"/><path fill="#6363F1" d="M277 143.999c0-4.56-1.2-9.12-3.52-13.04l-42.64-73.84c-7.92-13.68-24.56-20.56-40.64-15.28-8.16 2.72-14.72 8.8-19.04 16.24l-9.6 16.56L201.64 144l-42.32 73.36-10.16 17.6c-3.04 5.2-7.12 9.6-11.92 13.04h65.28c11.44 0 22-6.08 27.68-16l43.28-74.96c2.32-3.92 3.52-8.48 3.52-13.04Z"/></svg>